<svg width="374" height="58" viewBox="0 0 374 58" fill="none" xmlns="http://www.w3.org/2000/svg">
<path d="M9 7.875C9.62132 7.875 10.125 7.37132 10.125 6.75C10.125 6.12868 9.62132 5.625 9 5.625C8.37868 5.625 7.875 6.12868 7.875 6.75C7.875 7.37132 8.37868 7.875 9 7.875Z" fill="#112211"/>
<path d="M9 1.125C5.89852 1.125 3.375 3.53848 3.375 6.50391C3.375 7.91613 4.01871 9.79418 5.2882 12.086C6.30773 13.9261 7.48723 15.59 8.1007 16.418C8.20437 16.5594 8.33991 16.6745 8.49633 16.7538C8.65276 16.8331 8.82567 16.8744 9.00105 16.8744C9.17644 16.8744 9.34935 16.8331 9.50578 16.7538C9.6622 16.6745 9.79774 16.5594 9.90141 16.418C10.5138 15.59 11.6944 13.9261 12.7139 12.086C13.9813 9.79488 14.625 7.91684 14.625 6.50391C14.625 3.53848 12.1015 1.125 9 1.125ZM9 9C8.55499 9 8.11998 8.86804 7.74997 8.62081C7.37996 8.37357 7.09157 8.02217 6.92127 7.61104C6.75097 7.1999 6.70642 6.7475 6.79323 6.31105C6.88005 5.87459 7.09434 5.47368 7.40901 5.15901C7.72368 4.84434 8.12459 4.63005 8.56105 4.54323C8.9975 4.45642 9.4499 4.50097 9.86104 4.67127C10.2722 4.84157 10.6236 5.12996 10.8708 5.49997C11.118 5.86998 11.25 6.30499 11.25 6.75C11.2493 7.34654 11.0121 7.91846 10.5903 8.34027C10.1685 8.76209 9.59654 8.99935 9 9Z" fill="#112211"/>
<path opacity="0.75" d="M30.26 12.736C29.56 13.184 28.79 13.366 27.964 13.366C25.71 13.366 24.072 11.756 24.072 9.6C24.072 7.416 25.71 5.834 27.978 5.834C29.084 5.834 30.008 6.184 30.82 6.968L31.688 6.1C30.792 5.106 29.476 4.588 27.922 4.588C24.884 4.588 22.672 6.702 22.672 9.6C22.672 12.498 24.884 14.612 27.894 14.612C29.266 14.612 30.624 14.192 31.604 13.366V9.544H30.26V12.736ZM36.2165 5.764C36.6085 5.764 36.9305 5.47 36.9305 5.05C36.9305 4.63 36.6085 4.322 36.2165 4.322C35.8245 4.322 35.5025 4.63 35.5025 5.05C35.5025 5.47 35.8245 5.764 36.2165 5.764ZM38.8205 5.764C39.2125 5.764 39.5345 5.47 39.5345 5.05C39.5345 4.63 39.2125 4.322 38.8205 4.322C38.4285 4.322 38.1065 4.63 38.1065 5.05C38.1065 5.47 38.4285 5.764 38.8205 5.764ZM39.6605 7.08V10.916C39.6605 12.512 38.7645 13.38 37.3645 13.38C36.0905 13.38 35.3625 12.652 35.3625 11.196V7.08H34.0185V11.35C34.0185 13.534 35.2925 14.584 37.2105 14.584C38.2605 14.584 39.1845 14.15 39.7305 13.38V14.5H41.0045V7.08H39.6605ZM52.8451 7.01C51.5851 7.01 50.5491 7.542 49.9891 8.382C49.4991 7.458 48.5471 7.01 47.4131 7.01C46.2931 7.01 45.3831 7.43 44.8511 8.186V7.08H43.5631V14.5H44.9071V10.678C44.9071 9.068 45.7891 8.214 47.1331 8.214C48.3511 8.214 49.0511 8.928 49.0511 10.384V14.5H50.3951V10.678C50.3951 9.068 51.2771 8.214 52.6211 8.214C53.8391 8.214 54.5391 8.928 54.5391 10.384V14.5H55.8831V10.23C55.8831 8.046 54.6511 7.01 52.8451 7.01ZM60.484 5.764C60.876 5.764 61.198 5.47 61.198 5.05C61.198 4.63 60.876 4.322 60.484 4.322C60.092 4.322 59.77 4.63 59.77 5.05C59.77 5.47 60.092 5.764 60.484 5.764ZM63.088 5.764C63.48 5.764 63.802 5.47 63.802 5.05C63.802 4.63 63.48 4.322 63.088 4.322C62.696 4.322 62.374 4.63 62.374 5.05C62.374 5.47 62.696 5.764 63.088 5.764ZM63.928 7.08V10.916C63.928 12.512 63.032 13.38 61.632 13.38C60.358 13.38 59.63 12.652 59.63 11.196V7.08H58.286V11.35C58.286 13.534 59.56 14.584 61.478 14.584C62.528 14.584 63.452 14.15 63.998 13.38V14.5H65.272V7.08H63.928ZM69.9586 14.584C71.9326 14.584 73.1646 13.73 73.1646 12.386C73.1646 9.502 68.4606 10.93 68.4606 9.18C68.4606 8.592 69.0346 8.158 70.2106 8.158C70.9386 8.158 71.6806 8.312 72.3526 8.746L72.9266 7.682C72.2826 7.262 71.1906 7.01 70.2246 7.01C68.3206 7.01 67.1306 7.906 67.1306 9.236C67.1306 12.19 71.8206 10.748 71.8206 12.414C71.8206 13.044 71.3026 13.422 70.0566 13.422C69.0906 13.422 68.0826 13.1 67.4526 12.652L66.8926 13.716C67.5086 14.206 68.7266 14.584 69.9586 14.584ZM76.9723 14.584C78.9463 14.584 80.1783 13.73 80.1783 12.386C80.1783 9.502 75.4743 10.93 75.4743 9.18C75.4743 8.592 76.0483 8.158 77.2243 8.158C77.9523 8.158 78.6943 8.312 79.3663 8.746L79.9403 7.682C79.2963 7.262 78.2043 7.01 77.2383 7.01C75.3343 7.01 74.1443 7.906 74.1443 9.236C74.1443 12.19 78.8343 10.748 78.8343 12.414C78.8343 13.044 78.3163 13.422 77.0703 13.422C76.1043 13.422 75.0963 13.1 74.4663 12.652L73.9063 13.716C74.5223 14.206 75.7403 14.584 76.9723 14.584ZM87.43 7.08V10.916C87.43 12.512 86.534 13.38 85.134 13.38C83.86 13.38 83.132 12.652 83.132 11.196V7.08H81.788V11.35C81.788 13.534 83.062 14.584 84.98 14.584C86.03 14.584 86.954 14.15 87.5 13.38V14.5H88.774V7.08H87.43ZM96.5826 7.08L94.0206 13.016L91.4306 7.08H90.0306L93.3066 14.486L93.0686 15.004C92.7046 15.858 92.2986 16.152 91.6546 16.152C91.1506 16.152 90.6886 15.956 90.3246 15.606L89.7506 16.614C90.2126 17.062 90.9406 17.3 91.6546 17.3C92.7886 17.3 93.6426 16.81 94.3006 15.242L97.8986 7.08H96.5826ZM104.725 7.08V10.916C104.725 12.512 103.829 13.38 102.429 13.38C101.155 13.38 100.427 12.652 100.427 11.196V7.08H99.0829V11.35C99.0829 13.534 100.357 14.584 102.275 14.584C103.325 14.584 104.249 14.15 104.795 13.38V14.5H106.069V7.08H104.725ZM123.013 14.5L122.999 4.7H121.851L117.819 11.588L113.731 4.7H112.583V14.5H113.927V7.402L117.469 13.31H118.113L121.655 7.36L121.669 14.5H123.013ZM128.46 7.01C127.27 7.01 126.164 7.346 125.394 7.962L125.954 8.97C126.528 8.48 127.424 8.172 128.306 8.172C129.636 8.172 130.294 8.83 130.294 9.964V10.23H128.166C125.954 10.23 125.184 11.21 125.184 12.4C125.184 13.688 126.248 14.584 127.928 14.584C129.09 14.584 129.916 14.192 130.364 13.52V14.5H131.638V10.02C131.638 7.99 130.49 7.01 128.46 7.01ZM128.152 13.548C127.13 13.548 126.514 13.086 126.514 12.344C126.514 11.714 126.892 11.196 128.222 11.196H130.294V12.232C129.958 13.086 129.16 13.548 128.152 13.548ZM138.088 7.01C136.954 7.01 136.03 7.416 135.47 8.13V4.112H134.126V14.5H135.47V10.678C135.47 9.068 136.394 8.214 137.822 8.214C139.096 8.214 139.824 8.928 139.824 10.384V14.5H141.168V10.23C141.168 8.046 139.894 7.01 138.088 7.01ZM143.977 14.584C144.481 14.584 144.901 14.178 144.901 13.618C144.901 13.058 144.481 12.666 143.977 12.666C143.459 12.666 143.025 13.058 143.025 13.618C143.025 14.178 143.459 14.584 143.977 14.584ZM150.783 14.5H152.183V4.7H150.783V14.5ZM158.882 7.01C157.706 7.01 156.754 7.444 156.208 8.2V7.08H154.92V14.5H156.264V10.678C156.264 9.068 157.188 8.214 158.616 8.214C159.89 8.214 160.618 8.928 160.618 10.384V14.5H161.962V10.23C161.962 8.046 160.688 7.01 158.882 7.01ZM166.353 5.764C166.745 5.764 167.067 5.47 167.067 5.05C167.067 4.63 166.745 4.322 166.353 4.322C165.961 4.322 165.639 4.63 165.639 5.05C165.639 5.47 165.961 5.764 166.353 5.764ZM168.957 5.764C169.349 5.764 169.671 5.47 169.671 5.05C169.671 4.63 169.349 4.322 168.957 4.322C168.565 4.322 168.243 4.63 168.243 5.05C168.243 5.47 168.565 5.764 168.957 5.764ZM167.669 14.584C169.895 14.584 171.519 13.002 171.519 10.79C171.519 8.578 169.895 7.01 167.669 7.01C165.443 7.01 163.805 8.578 163.805 10.79C163.805 13.002 165.443 14.584 167.669 14.584ZM167.669 13.408C166.241 13.408 165.163 12.372 165.163 10.79C165.163 9.208 166.241 8.186 167.669 8.186C169.097 8.186 170.161 9.208 170.161 10.79C170.161 12.372 169.097 13.408 167.669 13.408ZM177.34 7.01C176.164 7.01 175.212 7.444 174.666 8.2V7.08H173.378V14.5H174.722V10.678C174.722 9.068 175.646 8.214 177.074 8.214C178.348 8.214 179.076 8.928 179.076 10.384V14.5H180.42V10.23C180.42 8.046 179.146 7.01 177.34 7.01ZM185.035 5.764C185.427 5.764 185.749 5.47 185.749 5.05C185.749 4.63 185.427 4.322 185.035 4.322C184.643 4.322 184.321 4.63 184.321 5.05C184.321 5.47 184.643 5.764 185.035 5.764ZM187.639 5.764C188.031 5.764 188.353 5.47 188.353 5.05C188.353 4.63 188.031 4.322 187.639 4.322C187.247 4.322 186.925 4.63 186.925 5.05C186.925 5.47 187.247 5.764 187.639 5.764ZM188.479 7.08V10.916C188.479 12.512 187.583 13.38 186.183 13.38C184.909 13.38 184.181 12.652 184.181 11.196V7.08H182.837V11.35C182.837 13.534 184.111 14.584 186.029 14.584C187.079 14.584 188.003 14.15 188.549 13.38V14.5H189.823V7.08H188.479ZM200.719 14.612C202.245 14.612 203.561 14.08 204.457 13.072L203.547 12.19C202.791 12.988 201.867 13.366 200.789 13.366C198.577 13.366 196.939 11.77 196.939 9.6C196.939 7.43 198.577 5.834 200.789 5.834C201.867 5.834 202.791 6.198 203.547 6.996L204.457 6.114C203.561 5.106 202.245 4.588 200.733 4.588C197.751 4.588 195.539 6.702 195.539 9.6C195.539 12.498 197.751 14.612 200.719 14.612ZM208.865 7.01C207.675 7.01 206.569 7.346 205.799 7.962L206.359 8.97C206.933 8.48 207.829 8.172 208.711 8.172C210.041 8.172 210.699 8.83 210.699 9.964V10.23H208.571C206.359 10.23 205.589 11.21 205.589 12.4C205.589 13.688 206.653 14.584 208.333 14.584C209.495 14.584 210.321 14.192 210.769 13.52V14.5H212.043V10.02C212.043 7.99 210.895 7.01 208.865 7.01ZM208.557 13.548C207.535 13.548 206.919 13.086 206.919 12.344C206.919 11.714 207.297 11.196 208.627 11.196H210.699V12.232C210.363 13.086 209.565 13.548 208.557 13.548ZM220.227 4.112V8.2C219.611 7.402 218.687 7.01 217.637 7.01C215.467 7.01 213.885 8.522 213.885 10.79C213.885 13.058 215.467 14.584 217.637 14.584C218.729 14.584 219.681 14.164 220.283 13.324V14.5H221.571V4.112H220.227ZM217.749 13.408C216.321 13.408 215.243 12.372 215.243 10.79C215.243 9.208 216.321 8.186 217.749 8.186C219.163 8.186 220.241 9.208 220.241 10.79C220.241 12.372 219.163 13.408 217.749 13.408ZM224.436 14.584C224.94 14.584 225.36 14.178 225.36 13.618C225.36 13.058 224.94 12.666 224.436 12.666C223.918 12.666 223.484 13.058 223.484 13.618C223.484 14.178 223.918 14.584 224.436 14.584ZM238.269 4.7V12.008L232.389 4.7H231.241V14.5H232.641V7.192L238.521 14.5H239.669V4.7H238.269ZM245.585 14.584C247.811 14.584 249.435 13.002 249.435 10.79C249.435 8.578 247.811 7.01 245.585 7.01C243.359 7.01 241.721 8.578 241.721 10.79C241.721 13.002 243.359 14.584 245.585 14.584ZM245.585 13.408C244.157 13.408 243.079 12.372 243.079 10.79C243.079 9.208 244.157 8.186 245.585 8.186C247.013 8.186 248.077 9.208 248.077 10.79C248.077 12.372 247.013 13.408 245.585 13.408ZM251.616 8.928C252.12 8.928 252.54 8.522 252.54 7.962C252.54 7.402 252.12 7.01 251.616 7.01C251.098 7.01 250.664 7.402 250.664 7.962C250.664 8.522 251.098 8.928 251.616 8.928ZM251.616 14.584C252.12 14.584 252.54 14.178 252.54 13.618C252.54 13.058 252.12 12.666 251.616 12.666C251.098 12.666 250.664 13.058 250.664 13.618C250.664 14.178 251.098 14.584 251.616 14.584ZM259.855 9.362C260.751 8.942 261.241 8.214 261.241 7.248C261.241 5.61 259.813 4.588 257.685 4.588C255.571 4.588 254.157 5.61 254.157 7.248C254.157 8.214 254.633 8.942 255.529 9.362C254.423 9.782 253.807 10.608 253.807 11.728C253.807 13.506 255.305 14.612 257.685 14.612C260.079 14.612 261.591 13.506 261.591 11.728C261.591 10.608 260.975 9.796 259.855 9.362ZM257.685 5.722C259.001 5.722 259.869 6.324 259.869 7.304C259.869 8.27 259.043 8.872 257.685 8.872C256.341 8.872 255.543 8.27 255.543 7.304C255.543 6.324 256.369 5.722 257.685 5.722ZM257.685 13.478C256.131 13.478 255.207 12.792 255.207 11.686C255.207 10.608 256.131 9.936 257.685 9.936C259.239 9.936 260.191 10.608 260.191 11.686C260.191 12.792 259.239 13.478 257.685 13.478ZM263.948 12.666C263.416 12.666 263.01 13.058 263.01 13.618C263.01 14.038 263.248 14.36 263.598 14.486L263.08 16.572H263.962L264.62 14.626C264.802 14.108 264.858 13.898 264.858 13.618C264.858 13.072 264.48 12.666 263.948 12.666ZM270.74 14.5H272.14V4.7H270.74V14.5ZM277.006 14.584C278.98 14.584 280.212 13.73 280.212 12.386C280.212 9.502 275.508 10.93 275.508 9.18C275.508 8.592 276.082 8.158 277.258 8.158C277.986 8.158 278.728 8.312 279.4 8.746L279.974 7.682C279.33 7.262 278.238 7.01 277.272 7.01C275.368 7.01 274.178 7.906 274.178 9.236C274.178 12.19 278.868 10.748 278.868 12.414C278.868 13.044 278.35 13.422 277.104 13.422C276.138 13.422 275.13 13.1 274.5 12.652L273.94 13.716C274.556 14.206 275.774 14.584 277.006 14.584ZM285.643 13.1C285.363 13.324 284.985 13.45 284.593 13.45C283.851 13.45 283.431 13.002 283.431 12.204V8.186H285.559V7.08H283.431V5.456H282.087V7.08H280.827V8.186H282.087V12.26C282.087 13.758 282.941 14.584 284.439 14.584C285.041 14.584 285.657 14.416 286.063 14.066L285.643 13.1ZM290.39 7.01C289.2 7.01 288.094 7.346 287.324 7.962L287.884 8.97C288.458 8.48 289.354 8.172 290.236 8.172C291.566 8.172 292.224 8.83 292.224 9.964V10.23H290.096C287.884 10.23 287.114 11.21 287.114 12.4C287.114 13.688 288.178 14.584 289.858 14.584C291.02 14.584 291.846 14.192 292.294 13.52V14.5H293.568V10.02C293.568 7.99 292.42 7.01 290.39 7.01ZM290.082 13.548C289.06 13.548 288.444 13.086 288.444 12.344C288.444 11.714 288.822 11.196 290.152 11.196H292.224V12.232C291.888 13.086 291.09 13.548 290.082 13.548ZM300.017 7.01C298.841 7.01 297.889 7.444 297.343 8.2V7.08H296.055V14.5H297.399V10.678C297.399 9.068 298.323 8.214 299.751 8.214C301.025 8.214 301.753 8.928 301.753 10.384V14.5H303.097V10.23C303.097 8.046 301.823 7.01 300.017 7.01ZM309.519 7.01C308.469 7.01 307.545 7.402 306.929 8.2V4.112H305.585V14.5H306.873V13.324C307.475 14.164 308.427 14.584 309.519 14.584C311.689 14.584 313.271 13.058 313.271 10.79C313.271 8.522 311.689 7.01 309.519 7.01ZM309.407 13.408C307.993 13.408 306.915 12.372 306.915 10.79C306.915 9.208 307.993 8.186 309.407 8.186C310.835 8.186 311.913 9.208 311.913 10.79C311.913 12.372 310.835 13.408 309.407 13.408ZM320.7 7.08V10.916C320.7 12.512 319.804 13.38 318.404 13.38C317.13 13.38 316.402 12.652 316.402 11.196V7.08H315.058V11.35C315.058 13.534 316.332 14.584 318.25 14.584C319.3 14.584 320.224 14.15 320.77 13.38V14.5H322.044V7.08H320.7ZM324.602 14.5H325.946V4.112H324.602V14.5ZM335.422 8.816L337.984 5.652V4.7H331.516V5.918H336.234L333.77 8.942V9.922H334.554C336.234 9.922 336.976 10.594 336.976 11.63C336.976 12.694 336.136 13.366 334.666 13.366C333.462 13.366 332.37 12.932 331.712 12.316L331.068 13.422C331.894 14.164 333.266 14.612 334.666 14.612C337.158 14.612 338.376 13.268 338.376 11.616C338.376 10.104 337.382 8.998 335.422 8.816ZM348.208 10.888H346.346V8.76H345.03V10.888H341.264L346.066 4.7H344.554L339.542 11.112V12.092H344.988V14.5H346.346V12.092H348.208V10.888ZM357.573 10.888H355.711V8.76H354.395V10.888H350.629L355.431 4.7H353.919L348.907 11.112V12.092H354.353V14.5H355.711V12.092H357.573V10.888ZM362 8.816L364.562 5.652V4.7H358.094V5.918H362.812L360.348 8.942V9.922H361.132C362.812 9.922 363.554 10.594 363.554 11.63C363.554 12.694 362.714 13.366 361.244 13.366C360.04 13.366 358.948 12.932 358.29 12.316L357.646 13.422C358.472 14.164 359.844 14.612 361.244 14.612C363.736 14.612 364.954 13.268 364.954 11.616C364.954 10.104 363.96 8.998 362 8.816ZM365.844 4.7V7.668H367.188V5.918H371.668L367.79 14.5H369.274L373.236 5.652V4.7H365.844Z" fill="#112211"/>
<rect x="0.5" y="26.5" width="39" height="31" rx="3.5" stroke="#8DD3BB"/>
<path d="M18.884 44.436H17.288V46.5H16.124V44.436H11.456V43.596L15.752 38.1H17.048L12.932 43.404H16.16V41.58H17.288V43.404H18.884V44.436ZM20.6297 46.572C20.4057 46.572 20.2137 46.496 20.0537 46.344C19.8937 46.184 19.8137 45.984 19.8137 45.744C19.8137 45.512 19.8937 45.32 20.0537 45.168C20.2137 45.008 20.4057 44.928 20.6297 44.928C20.8537 44.928 21.0417 45.004 21.1937 45.156C21.3457 45.308 21.4217 45.504 21.4217 45.744C21.4217 45.984 21.3417 46.184 21.1817 46.344C21.0297 46.496 20.8457 46.572 20.6297 46.572ZM28.5777 45.456V46.5H22.5417V45.684L25.9617 42.384C26.3777 41.984 26.6577 41.64 26.8017 41.352C26.9457 41.056 27.0177 40.76 27.0177 40.464C27.0177 40.024 26.8617 39.684 26.5497 39.444C26.2457 39.196 25.8057 39.072 25.2297 39.072C24.3017 39.072 23.5857 39.376 23.0817 39.984L22.2657 39.276C22.5937 38.876 23.0217 38.564 23.5497 38.34C24.0857 38.116 24.6817 38.004 25.3377 38.004C26.2177 38.004 26.9177 38.216 27.4377 38.64C27.9577 39.056 28.2177 39.624 28.2177 40.344C28.2177 40.792 28.1217 41.216 27.9297 41.616C27.7377 42.016 27.3737 42.472 26.8377 42.984L24.2697 45.456H28.5777Z" fill="#112211"/>
<path d="M55.14 38.1L52.548 44.1L49.992 38.1H47.892L51.516 46.5H53.436L57.072 38.1H55.14ZM63.4849 43.296C63.4849 41.22 62.0209 39.948 60.1249 39.948C58.1569 39.948 56.6809 41.34 56.6809 43.272C56.6809 45.192 58.1329 46.596 60.3649 46.596C61.5289 46.596 62.4289 46.236 63.0289 45.552L62.0329 44.472C61.5889 44.892 61.0969 45.096 60.4129 45.096C59.4289 45.096 58.7449 44.604 58.5649 43.8H63.4489C63.4609 43.644 63.4849 43.44 63.4849 43.296ZM60.1369 41.364C60.9769 41.364 61.5889 41.892 61.7209 42.708H58.5409C58.6729 41.88 59.2849 41.364 60.1369 41.364ZM66.5192 40.896V40.044H64.7312V46.5H66.6032V43.452C66.6032 42.216 67.2872 41.652 68.3192 41.652C68.4632 41.652 68.5832 41.664 68.7392 41.676V39.948C67.7432 39.948 66.9752 40.272 66.5192 40.896ZM74.6829 40.044L72.8589 44.424L71.0469 40.044H69.1149L71.9109 46.548L71.8869 46.608C71.6349 47.184 71.3469 47.412 70.8309 47.412C70.4589 47.412 70.0629 47.256 69.7749 47.004L69.0909 48.336C69.5109 48.708 70.2309 48.924 70.8909 48.924C72.0549 48.924 72.9429 48.456 73.5669 46.896L76.4829 40.044H74.6829ZM86.4533 44.628C85.9613 44.892 85.4693 44.988 84.9413 44.988C83.3333 44.988 82.2173 43.872 82.2173 42.3C82.2173 40.704 83.3333 39.612 84.9653 39.612C85.8173 39.612 86.5253 39.912 87.1373 40.56L88.3853 39.408C87.5693 38.46 86.3453 37.956 84.8693 37.956C82.1933 37.956 80.2493 39.768 80.2493 42.3C80.2493 44.832 82.1933 46.644 84.8333 46.644C86.0333 46.644 87.3053 46.272 88.2293 45.576V42.168H86.4533V44.628ZM92.9751 46.596C95.0271 46.596 96.5151 45.216 96.5151 43.272C96.5151 41.328 95.0271 39.948 92.9751 39.948C90.9231 39.948 89.4231 41.328 89.4231 43.272C89.4231 45.216 90.9231 46.596 92.9751 46.596ZM92.9751 45.06C92.0391 45.06 91.3191 44.388 91.3191 43.272C91.3191 42.156 92.0391 41.484 92.9751 41.484C93.9111 41.484 94.6191 42.156 94.6191 43.272C94.6191 44.388 93.9111 45.06 92.9751 45.06ZM100.838 46.596C102.89 46.596 104.378 45.216 104.378 43.272C104.378 41.328 102.89 39.948 100.838 39.948C98.7863 39.948 97.2863 41.328 97.2863 43.272C97.2863 45.216 98.7863 46.596 100.838 46.596ZM100.838 45.06C99.9023 45.06 99.1823 44.388 99.1823 43.272C99.1823 42.156 99.9023 41.484 100.838 41.484C101.774 41.484 102.482 42.156 102.482 43.272C102.482 44.388 101.774 45.06 100.838 45.06ZM110.334 37.596V40.728C109.866 40.2 109.194 39.948 108.402 39.948C106.578 39.948 105.174 41.244 105.174 43.272C105.174 45.3 106.578 46.596 108.402 46.596C109.266 46.596 109.95 46.32 110.418 45.756V46.5H112.206V37.596H110.334ZM108.726 45.06C107.79 45.06 107.07 44.388 107.07 43.272C107.07 42.156 107.79 41.484 108.726 41.484C109.65 41.484 110.37 42.156 110.37 43.272C110.37 44.388 109.65 45.06 108.726 45.06ZM119.273 41.448H118.337L118.565 39.144H122.297V38.1H117.557L117.113 42.492H119.021C120.965 42.492 121.565 43.08 121.565 44.028C121.565 44.94 120.845 45.528 119.573 45.528C118.553 45.528 117.617 45.156 117.053 44.628L116.501 45.576C117.221 46.212 118.397 46.596 119.585 46.596C121.733 46.596 122.765 45.432 122.765 43.98C122.765 42.492 121.781 41.448 119.273 41.448ZM131.072 43.404H129.476V41.58H128.348V43.404H125.12L129.236 38.1H127.94L123.644 43.596V44.436H128.312V46.5H129.476V44.436H131.072V43.404ZM136.634 41.208V40.14H135.53V46.5H136.682V43.332C136.682 41.94 137.45 41.184 138.686 41.184C138.77 41.184 138.854 41.184 138.95 41.196V40.08C137.834 40.08 137.042 40.464 136.634 41.208ZM146.059 43.356C146.059 41.4 144.751 40.08 142.915 40.08C141.079 40.08 139.723 41.436 139.723 43.32C139.723 45.216 141.091 46.572 143.143 46.572C144.199 46.572 145.075 46.212 145.651 45.54L145.015 44.796C144.547 45.312 143.923 45.564 143.179 45.564C141.919 45.564 141.019 44.82 140.875 43.704H146.035C146.047 43.596 146.059 43.452 146.059 43.356ZM142.915 41.052C144.031 41.052 144.835 41.808 144.955 42.876H140.875C140.995 41.796 141.811 41.052 142.915 41.052ZM152.041 40.14L149.809 45.24L147.625 40.14H146.425L149.209 46.5H150.385L153.169 40.14H152.041ZM154.82 38.916C155.276 38.916 155.6 38.58 155.6 38.148C155.6 37.74 155.264 37.416 154.82 37.416C154.376 37.416 154.04 37.752 154.04 38.172C154.04 38.592 154.376 38.916 154.82 38.916ZM154.244 46.5H155.396V40.14H154.244V46.5ZM163.344 43.356C163.344 41.4 162.036 40.08 160.2 40.08C158.364 40.08 157.008 41.436 157.008 43.32C157.008 45.216 158.376 46.572 160.428 46.572C161.484 46.572 162.36 46.212 162.936 45.54L162.3 44.796C161.832 45.312 161.208 45.564 160.464 45.564C159.204 45.564 158.304 44.82 158.16 43.704H163.32C163.332 43.596 163.344 43.452 163.344 43.356ZM160.2 41.052C161.316 41.052 162.12 41.808 162.24 42.876H158.16C158.28 41.796 159.096 41.052 160.2 41.052ZM173.418 40.14L171.522 45.228L169.638 40.14H168.666L166.746 45.204L164.898 40.14H163.806L166.17 46.5H167.274L169.134 41.676L170.97 46.5H172.074L174.45 40.14H173.418ZM177.361 46.572C179.053 46.572 180.109 45.84 180.109 44.688C180.109 42.216 176.077 43.44 176.077 41.94C176.077 41.436 176.569 41.064 177.577 41.064C178.201 41.064 178.837 41.196 179.413 41.568L179.905 40.656C179.353 40.296 178.417 40.08 177.589 40.08C175.957 40.08 174.937 40.848 174.937 41.988C174.937 44.52 178.957 43.284 178.957 44.712C178.957 45.252 178.513 45.576 177.445 45.576C176.617 45.576 175.753 45.3 175.213 44.916L174.733 45.828C175.261 46.248 176.305 46.572 177.361 46.572Z" fill="#112211"/>
</svg>
