<svg width="380" height="24" viewBox="0 0 380 24" fill="none" xmlns="http://www.w3.org/2000/svg">
<path d="M18.75 3H5.25C4.00736 3 3 4.00736 3 5.25V18.75C3 19.9926 4.00736 21 5.25 21H18.75C19.9926 21 21 19.9926 21 18.75V5.25C21 4.00736 19.9926 3 18.75 3Z" fill="#8DD3BB"/>
<path d="M10 16.4L6 12.4L7.4 11L10 13.6L16.6 7L18 8.4L10 16.4Z" fill="white"/>
<path d="M34.744 11.928H39.784V13.118H34.744V11.928ZM34.87 16.282H40.582V17.5H33.47V7.7H40.386V8.918H34.87V16.282ZM45.7912 17.584C45.0352 17.584 44.3585 17.4207 43.7612 17.094C43.1732 16.7673 42.7112 16.3193 42.3752 15.75C42.0392 15.1807 41.8712 14.5273 41.8712 13.79C41.8712 13.0527 42.0392 12.3993 42.3752 11.83C42.7112 11.2607 43.1732 10.8173 43.7612 10.5C44.3585 10.1733 45.0352 10.01 45.7912 10.01C46.4632 10.01 47.0605 10.1453 47.5832 10.416C48.1152 10.6773 48.5259 11.0693 48.8152 11.592L47.7932 12.25C47.5505 11.886 47.2519 11.62 46.8972 11.452C46.5519 11.2747 46.1785 11.186 45.7772 11.186C45.2919 11.186 44.8579 11.2933 44.4752 11.508C44.0925 11.7227 43.7892 12.026 43.5652 12.418C43.3412 12.8007 43.2292 13.258 43.2292 13.79C43.2292 14.322 43.3412 14.784 43.5652 15.176C43.7892 15.568 44.0925 15.8713 44.4752 16.086C44.8579 16.3007 45.2919 16.408 45.7772 16.408C46.1785 16.408 46.5519 16.324 46.8972 16.156C47.2519 15.9787 47.5505 15.708 47.7932 15.344L48.8152 15.988C48.5259 16.5013 48.1152 16.898 47.5832 17.178C47.0605 17.4487 46.4632 17.584 45.7912 17.584ZM53.6239 17.584C52.8772 17.584 52.2145 17.4207 51.6359 17.094C51.0572 16.7673 50.5999 16.3193 50.2639 15.75C49.9279 15.1713 49.7599 14.518 49.7599 13.79C49.7599 13.0527 49.9279 12.3993 50.2639 11.83C50.5999 11.2607 51.0572 10.8173 51.6359 10.5C52.2145 10.1733 52.8772 10.01 53.6239 10.01C54.3612 10.01 55.0192 10.1733 55.5979 10.5C56.1859 10.8173 56.6432 11.2607 56.9699 11.83C57.3059 12.39 57.4739 13.0433 57.4739 13.79C57.4739 14.5273 57.3059 15.1807 56.9699 15.75C56.6432 16.3193 56.1859 16.7673 55.5979 17.094C55.0192 17.4207 54.3612 17.584 53.6239 17.584ZM53.6239 16.408C54.0999 16.408 54.5245 16.3007 54.8979 16.086C55.2805 15.8713 55.5792 15.568 55.7939 15.176C56.0085 14.7747 56.1159 14.3127 56.1159 13.79C56.1159 13.258 56.0085 12.8007 55.7939 12.418C55.5792 12.026 55.2805 11.7227 54.8979 11.508C54.5245 11.2933 54.0999 11.186 53.6239 11.186C53.1479 11.186 52.7232 11.2933 52.3499 11.508C51.9765 11.7227 51.6779 12.026 51.4539 12.418C51.2299 12.8007 51.1179 13.258 51.1179 13.79C51.1179 14.3127 51.2299 14.7747 51.4539 15.176C51.6779 15.568 51.9765 15.8713 52.3499 16.086C52.7232 16.3007 53.1479 16.408 53.6239 16.408ZM63.2946 10.01C63.9013 10.01 64.4333 10.1267 64.8906 10.36C65.3573 10.5933 65.7213 10.948 65.9826 11.424C66.2439 11.9 66.3746 12.502 66.3746 13.23V17.5H65.0306V13.384C65.0306 12.6653 64.8533 12.124 64.4986 11.76C64.1533 11.396 63.6633 11.214 63.0286 11.214C62.5526 11.214 62.1373 11.3073 61.7826 11.494C61.4279 11.6807 61.1526 11.956 60.9566 12.32C60.7699 12.684 60.6766 13.1367 60.6766 13.678V17.5H59.3326V10.08H60.6206V12.082L60.4106 11.55C60.6533 11.0647 61.0266 10.6867 61.5306 10.416C62.0346 10.1453 62.6226 10.01 63.2946 10.01ZM72.0399 17.584C71.2932 17.584 70.6306 17.4207 70.0519 17.094C69.4732 16.7673 69.0159 16.3193 68.6799 15.75C68.3439 15.1713 68.1759 14.518 68.1759 13.79C68.1759 13.0527 68.3439 12.3993 68.6799 11.83C69.0159 11.2607 69.4732 10.8173 70.0519 10.5C70.6306 10.1733 71.2932 10.01 72.0399 10.01C72.7772 10.01 73.4352 10.1733 74.0139 10.5C74.6019 10.8173 75.0592 11.2607 75.3859 11.83C75.7219 12.39 75.8899 13.0433 75.8899 13.79C75.8899 14.5273 75.7219 15.1807 75.3859 15.75C75.0592 16.3193 74.6019 16.7673 74.0139 17.094C73.4352 17.4207 72.7772 17.584 72.0399 17.584ZM72.0399 16.408C72.5159 16.408 72.9406 16.3007 73.3139 16.086C73.6966 15.8713 73.9952 15.568 74.2099 15.176C74.4246 14.7747 74.5319 14.3127 74.5319 13.79C74.5319 13.258 74.4246 12.8007 74.2099 12.418C73.9952 12.026 73.6966 11.7227 73.3139 11.508C72.9406 11.2933 72.5159 11.186 72.0399 11.186C71.5639 11.186 71.1392 11.2933 70.7659 11.508C70.3926 11.7227 70.0939 12.026 69.8699 12.418C69.6459 12.8007 69.5339 13.258 69.5339 13.79C69.5339 14.3127 69.6459 14.7747 69.8699 15.176C70.0939 15.568 70.3926 15.8713 70.7659 16.086C71.1392 16.3007 71.5639 16.408 72.0399 16.408ZM87.0306 10.01C87.6279 10.01 88.1553 10.1267 88.6126 10.36C89.0699 10.5933 89.4246 10.948 89.6766 11.424C89.9379 11.9 90.0686 12.502 90.0686 13.23V17.5H88.7246V13.384C88.7246 12.6653 88.5566 12.124 88.2206 11.76C87.8846 11.396 87.4133 11.214 86.8066 11.214C86.3586 11.214 85.9666 11.3073 85.6306 11.494C85.2946 11.6807 85.0333 11.956 84.8466 12.32C84.6693 12.684 84.5806 13.1367 84.5806 13.678V17.5H83.2366V13.384C83.2366 12.6653 83.0686 12.124 82.7326 11.76C82.4059 11.396 81.9346 11.214 81.3186 11.214C80.8799 11.214 80.4926 11.3073 80.1566 11.494C79.8206 11.6807 79.5593 11.956 79.3726 12.32C79.1859 12.684 79.0926 13.1367 79.0926 13.678V17.5H77.7486V10.08H79.0366V12.054L78.8266 11.55C79.0599 11.0647 79.4193 10.6867 79.9046 10.416C80.3899 10.1453 80.9546 10.01 81.5986 10.01C82.3079 10.01 82.9193 10.1873 83.4326 10.542C83.9459 10.8873 84.2819 11.4147 84.4406 12.124L83.8946 11.9C84.1186 11.3307 84.5106 10.8733 85.0706 10.528C85.6306 10.1827 86.2839 10.01 87.0306 10.01ZM92.7269 20.3C92.3722 20.3 92.0269 20.2393 91.6909 20.118C91.3549 20.006 91.0655 19.838 90.8229 19.614L91.3969 18.606C91.5835 18.7833 91.7889 18.9187 92.0129 19.012C92.2369 19.1053 92.4749 19.152 92.7269 19.152C93.0535 19.152 93.3242 19.068 93.5389 18.9C93.7535 18.732 93.9542 18.4333 94.1409 18.004L94.6029 16.982L94.7429 16.814L97.6549 10.08H98.9709L95.3729 18.242C95.1582 18.7647 94.9155 19.1753 94.6449 19.474C94.3835 19.7727 94.0942 19.9827 93.7769 20.104C93.4595 20.2347 93.1095 20.3 92.7269 20.3ZM94.4909 17.738L91.1029 10.08H92.5029L95.3869 16.688L94.4909 17.738Z" fill="#112211"/>
<path d="M141.75 3H128.25C127.007 3 126 4.00736 126 5.25V18.75C126 19.9926 127.007 21 128.25 21H141.75C142.993 21 144 19.9926 144 18.75V5.25C144 4.00736 142.993 3 141.75 3Z" stroke="#112211" stroke-width="2" stroke-linejoin="round"/>
<path d="M157.73 12.334H162.784V13.538H157.73V12.334ZM157.87 17.5H156.47V7.7H163.386V8.918H157.87V17.5ZM165.161 17.5V10.08H166.505V17.5H165.161ZM165.833 8.652C165.571 8.652 165.352 8.568 165.175 8.4C165.007 8.232 164.923 8.02667 164.923 7.784C164.923 7.532 165.007 7.322 165.175 7.154C165.352 6.986 165.571 6.902 165.833 6.902C166.094 6.902 166.309 6.986 166.477 7.154C166.654 7.31267 166.743 7.51333 166.743 7.756C166.743 8.008 166.659 8.22267 166.491 8.4C166.323 8.568 166.103 8.652 165.833 8.652ZM169.071 17.5V10.08H170.359V12.096L170.233 11.592C170.438 11.0787 170.784 10.6867 171.269 10.416C171.754 10.1453 172.352 10.01 173.061 10.01V11.312C173.005 11.3027 172.949 11.298 172.893 11.298C172.846 11.298 172.8 11.298 172.753 11.298C172.034 11.298 171.465 11.5127 171.045 11.942C170.625 12.3713 170.415 12.992 170.415 13.804V17.5H169.071ZM176.927 17.584C176.311 17.584 175.723 17.5 175.163 17.332C174.613 17.164 174.179 16.9587 173.861 16.716L174.421 15.652C174.739 15.8667 175.131 16.0487 175.597 16.198C176.064 16.3473 176.54 16.422 177.025 16.422C177.651 16.422 178.099 16.3333 178.369 16.156C178.649 15.9787 178.789 15.7313 178.789 15.414C178.789 15.1807 178.705 14.9987 178.537 14.868C178.369 14.7373 178.145 14.6393 177.865 14.574C177.595 14.5087 177.291 14.4527 176.955 14.406C176.619 14.35 176.283 14.2847 175.947 14.21C175.611 14.126 175.303 14.014 175.023 13.874C174.743 13.7247 174.519 13.524 174.351 13.272C174.183 13.0107 174.099 12.6653 174.099 12.236C174.099 11.788 174.225 11.396 174.477 11.06C174.729 10.724 175.084 10.4673 175.541 10.29C176.008 10.1033 176.559 10.01 177.193 10.01C177.679 10.01 178.169 10.0707 178.663 10.192C179.167 10.304 179.578 10.4673 179.895 10.682L179.321 11.746C178.985 11.522 178.635 11.368 178.271 11.284C177.907 11.2 177.543 11.158 177.179 11.158C176.591 11.158 176.153 11.256 175.863 11.452C175.574 11.6387 175.429 11.8813 175.429 12.18C175.429 12.432 175.513 12.628 175.681 12.768C175.859 12.8987 176.083 13.0013 176.353 13.076C176.633 13.1507 176.941 13.216 177.277 13.272C177.613 13.3187 177.949 13.384 178.285 13.468C178.621 13.5427 178.925 13.65 179.195 13.79C179.475 13.93 179.699 14.126 179.867 14.378C180.045 14.63 180.133 14.966 180.133 15.386C180.133 15.834 180.003 16.2213 179.741 16.548C179.48 16.8747 179.111 17.1313 178.635 17.318C178.159 17.4953 177.59 17.584 176.927 17.584ZM184.361 17.584C183.614 17.584 183.036 17.3833 182.625 16.982C182.214 16.5807 182.009 16.0067 182.009 15.26V8.456H183.353V15.204C183.353 15.6053 183.451 15.9133 183.647 16.128C183.852 16.3427 184.142 16.45 184.515 16.45C184.935 16.45 185.285 16.3333 185.565 16.1L185.985 17.066C185.78 17.2433 185.532 17.374 185.243 17.458C184.963 17.542 184.669 17.584 184.361 17.584ZM180.749 11.186V10.08H185.481V11.186H180.749ZM195.948 17.612C195.201 17.612 194.51 17.4907 193.876 17.248C193.25 16.996 192.704 16.646 192.238 16.198C191.78 15.7407 191.421 15.2087 191.16 14.602C190.898 13.9953 190.768 13.328 190.768 12.6C190.768 11.872 190.898 11.2047 191.16 10.598C191.421 9.99133 191.785 9.464 192.252 9.016C192.718 8.55867 193.264 8.20867 193.89 7.966C194.524 7.714 195.215 7.588 195.962 7.588C196.718 7.588 197.413 7.71867 198.048 7.98C198.692 8.232 199.238 8.61 199.686 9.114L198.776 9.996C198.402 9.604 197.982 9.31467 197.516 9.128C197.049 8.932 196.55 8.834 196.018 8.834C195.467 8.834 194.954 8.92733 194.478 9.114C194.011 9.30067 193.605 9.562 193.26 9.898C192.914 10.234 192.644 10.6353 192.448 11.102C192.261 11.5593 192.168 12.0587 192.168 12.6C192.168 13.1413 192.261 13.6453 192.448 14.112C192.644 14.5693 192.914 14.966 193.26 15.302C193.605 15.638 194.011 15.8993 194.478 16.086C194.954 16.2727 195.467 16.366 196.018 16.366C196.55 16.366 197.049 16.2727 197.516 16.086C197.982 15.89 198.402 15.5913 198.776 15.19L199.686 16.072C199.238 16.576 198.692 16.9587 198.048 17.22C197.413 17.4813 196.713 17.612 195.948 17.612ZM201.487 17.5V7.112H202.831V17.5H201.487ZM210.003 17.5V15.932L209.933 15.638V12.964C209.933 12.3947 209.765 11.956 209.429 11.648C209.102 11.3307 208.608 11.172 207.945 11.172C207.506 11.172 207.077 11.2467 206.657 11.396C206.237 11.536 205.882 11.7273 205.593 11.97L205.033 10.962C205.416 10.654 205.873 10.4207 206.405 10.262C206.946 10.094 207.511 10.01 208.099 10.01C209.116 10.01 209.9 10.2573 210.451 10.752C211.002 11.2467 211.277 12.0027 211.277 13.02V17.5H210.003ZM207.567 17.584C207.016 17.584 206.531 17.4907 206.111 17.304C205.7 17.1173 205.383 16.8607 205.159 16.534C204.935 16.198 204.823 15.82 204.823 15.4C204.823 14.9987 204.916 14.6347 205.103 14.308C205.299 13.9813 205.612 13.72 206.041 13.524C206.48 13.328 207.068 13.23 207.805 13.23H210.157V14.196H207.861C207.189 14.196 206.736 14.308 206.503 14.532C206.27 14.756 206.153 15.0267 206.153 15.344C206.153 15.708 206.298 16.002 206.587 16.226C206.876 16.4407 207.278 16.548 207.791 16.548C208.295 16.548 208.734 16.436 209.107 16.212C209.49 15.988 209.765 15.6613 209.933 15.232L210.199 16.156C210.022 16.5947 209.709 16.9447 209.261 17.206C208.813 17.458 208.248 17.584 207.567 17.584ZM215.892 17.584C215.276 17.584 214.688 17.5 214.128 17.332C213.578 17.164 213.144 16.9587 212.826 16.716L213.386 15.652C213.704 15.8667 214.096 16.0487 214.562 16.198C215.029 16.3473 215.505 16.422 215.99 16.422C216.616 16.422 217.064 16.3333 217.334 16.156C217.614 15.9787 217.754 15.7313 217.754 15.414C217.754 15.1807 217.67 14.9987 217.502 14.868C217.334 14.7373 217.11 14.6393 216.83 14.574C216.56 14.5087 216.256 14.4527 215.92 14.406C215.584 14.35 215.248 14.2847 214.912 14.21C214.576 14.126 214.268 14.014 213.988 13.874C213.708 13.7247 213.484 13.524 213.316 13.272C213.148 13.0107 213.064 12.6653 213.064 12.236C213.064 11.788 213.19 11.396 213.442 11.06C213.694 10.724 214.049 10.4673 214.506 10.29C214.973 10.1033 215.524 10.01 216.158 10.01C216.644 10.01 217.134 10.0707 217.628 10.192C218.132 10.304 218.543 10.4673 218.86 10.682L218.286 11.746C217.95 11.522 217.6 11.368 217.236 11.284C216.872 11.2 216.508 11.158 216.144 11.158C215.556 11.158 215.118 11.256 214.828 11.452C214.539 11.6387 214.394 11.8813 214.394 12.18C214.394 12.432 214.478 12.628 214.646 12.768C214.824 12.8987 215.048 13.0013 215.318 13.076C215.598 13.1507 215.906 13.216 216.242 13.272C216.578 13.3187 216.914 13.384 217.25 13.468C217.586 13.5427 217.89 13.65 218.16 13.79C218.44 13.93 218.664 14.126 218.832 14.378C219.01 14.63 219.098 14.966 219.098 15.386C219.098 15.834 218.968 16.2213 218.706 16.548C218.445 16.8747 218.076 17.1313 217.6 17.318C217.124 17.4953 216.555 17.584 215.892 17.584ZM222.906 17.584C222.29 17.584 221.702 17.5 221.142 17.332C220.591 17.164 220.157 16.9587 219.84 16.716L220.4 15.652C220.717 15.8667 221.109 16.0487 221.576 16.198C222.043 16.3473 222.519 16.422 223.004 16.422C223.629 16.422 224.077 16.3333 224.348 16.156C224.628 15.9787 224.768 15.7313 224.768 15.414C224.768 15.1807 224.684 14.9987 224.516 14.868C224.348 14.7373 224.124 14.6393 223.844 14.574C223.573 14.5087 223.27 14.4527 222.934 14.406C222.598 14.35 222.262 14.2847 221.926 14.21C221.59 14.126 221.282 14.014 221.002 13.874C220.722 13.7247 220.498 13.524 220.33 13.272C220.162 13.0107 220.078 12.6653 220.078 12.236C220.078 11.788 220.204 11.396 220.456 11.06C220.708 10.724 221.063 10.4673 221.52 10.29C221.987 10.1033 222.537 10.01 223.172 10.01C223.657 10.01 224.147 10.0707 224.642 10.192C225.146 10.304 225.557 10.4673 225.874 10.682L225.3 11.746C224.964 11.522 224.614 11.368 224.25 11.284C223.886 11.2 223.522 11.158 223.158 11.158C222.57 11.158 222.131 11.256 221.842 11.452C221.553 11.6387 221.408 11.8813 221.408 12.18C221.408 12.432 221.492 12.628 221.66 12.768C221.837 12.8987 222.061 13.0013 222.332 13.076C222.612 13.1507 222.92 13.216 223.256 13.272C223.592 13.3187 223.928 13.384 224.264 13.468C224.6 13.5427 224.903 13.65 225.174 13.79C225.454 13.93 225.678 14.126 225.846 14.378C226.023 14.63 226.112 14.966 226.112 15.386C226.112 15.834 225.981 16.2213 225.72 16.548C225.459 16.8747 225.09 17.1313 224.614 17.318C224.138 17.4953 223.569 17.584 222.906 17.584Z" fill="#112211"/>
<path d="M269.75 3H256.25C255.007 3 254 4.00736 254 5.25V18.75C254 19.9926 255.007 21 256.25 21H269.75C270.993 21 272 19.9926 272 18.75V5.25C272 4.00736 270.993 3 269.75 3Z" stroke="#112211" stroke-width="2" stroke-linejoin="round"/>
<path d="M284.47 17.5V7.7H288.866C289.995 7.7 290.863 7.92867 291.47 8.386C292.077 8.834 292.38 9.45 292.38 10.234C292.38 10.766 292.259 11.214 292.016 11.578C291.783 11.942 291.465 12.222 291.064 12.418C290.663 12.614 290.229 12.712 289.762 12.712L290.014 12.292C290.574 12.292 291.069 12.39 291.498 12.586C291.927 12.782 292.268 13.0713 292.52 13.454C292.772 13.8273 292.898 14.294 292.898 14.854C292.898 15.694 292.581 16.3473 291.946 16.814C291.321 17.2713 290.387 17.5 289.146 17.5H284.47ZM285.87 16.366H289.09C289.865 16.366 290.457 16.2353 290.868 15.974C291.279 15.7127 291.484 15.302 291.484 14.742C291.484 14.1727 291.279 13.7573 290.868 13.496C290.457 13.2347 289.865 13.104 289.09 13.104H285.744V11.97H288.74C289.449 11.97 290 11.8393 290.392 11.578C290.784 11.3167 290.98 10.9247 290.98 10.402C290.98 9.87933 290.784 9.48733 290.392 9.226C290 8.96467 289.449 8.834 288.74 8.834H285.87V16.366ZM297.992 17.584C297.357 17.584 296.797 17.4673 296.312 17.234C295.836 17.0007 295.462 16.646 295.192 16.17C294.93 15.6847 294.8 15.078 294.8 14.35V10.08H296.144V14.196C296.144 14.924 296.316 15.47 296.662 15.834C297.016 16.198 297.511 16.38 298.146 16.38C298.612 16.38 299.018 16.2867 299.364 16.1C299.709 15.904 299.975 15.624 300.162 15.26C300.348 14.8867 300.442 14.4387 300.442 13.916V10.08H301.786V17.5H300.512V15.498L300.722 16.03C300.479 16.5247 300.115 16.9073 299.63 17.178C299.144 17.4487 298.598 17.584 297.992 17.584ZM306.472 17.584C305.856 17.584 305.268 17.5 304.708 17.332C304.158 17.164 303.724 16.9587 303.406 16.716L303.966 15.652C304.284 15.8667 304.676 16.0487 305.142 16.198C305.609 16.3473 306.085 16.422 306.57 16.422C307.196 16.422 307.644 16.3333 307.914 16.156C308.194 15.9787 308.334 15.7313 308.334 15.414C308.334 15.1807 308.25 14.9987 308.082 14.868C307.914 14.7373 307.69 14.6393 307.41 14.574C307.14 14.5087 306.836 14.4527 306.5 14.406C306.164 14.35 305.828 14.2847 305.492 14.21C305.156 14.126 304.848 14.014 304.568 13.874C304.288 13.7247 304.064 13.524 303.896 13.272C303.728 13.0107 303.644 12.6653 303.644 12.236C303.644 11.788 303.77 11.396 304.022 11.06C304.274 10.724 304.629 10.4673 305.086 10.29C305.553 10.1033 306.104 10.01 306.738 10.01C307.224 10.01 307.714 10.0707 308.208 10.192C308.712 10.304 309.123 10.4673 309.44 10.682L308.866 11.746C308.53 11.522 308.18 11.368 307.816 11.284C307.452 11.2 307.088 11.158 306.724 11.158C306.136 11.158 305.698 11.256 305.408 11.452C305.119 11.6387 304.974 11.8813 304.974 12.18C304.974 12.432 305.058 12.628 305.226 12.768C305.404 12.8987 305.628 13.0013 305.898 13.076C306.178 13.1507 306.486 13.216 306.822 13.272C307.158 13.3187 307.494 13.384 307.83 13.468C308.166 13.5427 308.47 13.65 308.74 13.79C309.02 13.93 309.244 14.126 309.412 14.378C309.59 14.63 309.678 14.966 309.678 15.386C309.678 15.834 309.548 16.2213 309.286 16.548C309.025 16.8747 308.656 17.1313 308.18 17.318C307.704 17.4953 307.135 17.584 306.472 17.584ZM311.358 17.5V10.08H312.702V17.5H311.358ZM312.03 8.652C311.769 8.652 311.549 8.568 311.372 8.4C311.204 8.232 311.12 8.02667 311.12 7.784C311.12 7.532 311.204 7.322 311.372 7.154C311.549 6.986 311.769 6.902 312.03 6.902C312.291 6.902 312.506 6.986 312.674 7.154C312.851 7.31267 312.94 7.51333 312.94 7.756C312.94 8.008 312.856 8.22267 312.688 8.4C312.52 8.568 312.301 8.652 312.03 8.652ZM319.23 10.01C319.837 10.01 320.369 10.1267 320.826 10.36C321.293 10.5933 321.657 10.948 321.918 11.424C322.179 11.9 322.31 12.502 322.31 13.23V17.5H320.966V13.384C320.966 12.6653 320.789 12.124 320.434 11.76C320.089 11.396 319.599 11.214 318.964 11.214C318.488 11.214 318.073 11.3073 317.718 11.494C317.363 11.6807 317.088 11.956 316.892 12.32C316.705 12.684 316.612 13.1367 316.612 13.678V17.5H315.268V10.08H316.556V12.082L316.346 11.55C316.589 11.0647 316.962 10.6867 317.466 10.416C317.97 10.1453 318.558 10.01 319.23 10.01ZM328.101 17.584C327.308 17.584 326.608 17.4207 326.001 17.094C325.404 16.7673 324.937 16.3193 324.601 15.75C324.275 15.1807 324.111 14.5273 324.111 13.79C324.111 13.0527 324.27 12.3993 324.587 11.83C324.914 11.2607 325.357 10.8173 325.917 10.5C326.487 10.1733 327.126 10.01 327.835 10.01C328.554 10.01 329.189 10.1687 329.739 10.486C330.29 10.8033 330.719 11.2513 331.027 11.83C331.345 12.3993 331.503 13.0667 331.503 13.832C331.503 13.888 331.499 13.9533 331.489 14.028C331.489 14.1027 331.485 14.1727 331.475 14.238H325.161V13.272H330.775L330.229 13.608C330.239 13.132 330.141 12.7073 329.935 12.334C329.73 11.9607 329.445 11.6713 329.081 11.466C328.727 11.2513 328.311 11.144 327.835 11.144C327.369 11.144 326.953 11.2513 326.589 11.466C326.225 11.6713 325.941 11.9653 325.735 12.348C325.53 12.7213 325.427 13.1507 325.427 13.636V13.86C325.427 14.3547 325.539 14.798 325.763 15.19C325.997 15.5727 326.319 15.8713 326.729 16.086C327.14 16.3007 327.611 16.408 328.143 16.408C328.582 16.408 328.979 16.3333 329.333 16.184C329.697 16.0347 330.015 15.8107 330.285 15.512L331.027 16.38C330.691 16.772 330.271 17.0707 329.767 17.276C329.273 17.4813 328.717 17.584 328.101 17.584ZM335.498 17.584C334.882 17.584 334.294 17.5 333.734 17.332C333.183 17.164 332.749 16.9587 332.432 16.716L332.992 15.652C333.309 15.8667 333.701 16.0487 334.168 16.198C334.634 16.3473 335.11 16.422 335.596 16.422C336.221 16.422 336.669 16.3333 336.94 16.156C337.22 15.9787 337.36 15.7313 337.36 15.414C337.36 15.1807 337.276 14.9987 337.108 14.868C336.94 14.7373 336.716 14.6393 336.436 14.574C336.165 14.5087 335.862 14.4527 335.526 14.406C335.19 14.35 334.854 14.2847 334.518 14.21C334.182 14.126 333.874 14.014 333.594 13.874C333.314 13.7247 333.09 13.524 332.922 13.272C332.754 13.0107 332.67 12.6653 332.67 12.236C332.67 11.788 332.796 11.396 333.048 11.06C333.3 10.724 333.654 10.4673 334.112 10.29C334.578 10.1033 335.129 10.01 335.764 10.01C336.249 10.01 336.739 10.0707 337.234 10.192C337.738 10.304 338.148 10.4673 338.466 10.682L337.892 11.746C337.556 11.522 337.206 11.368 336.842 11.284C336.478 11.2 336.114 11.158 335.75 11.158C335.162 11.158 334.723 11.256 334.434 11.452C334.144 11.6387 334 11.8813 334 12.18C334 12.432 334.084 12.628 334.252 12.768C334.429 12.8987 334.653 13.0013 334.924 13.076C335.204 13.1507 335.512 13.216 335.848 13.272C336.184 13.3187 336.52 13.384 336.856 13.468C337.192 13.5427 337.495 13.65 337.766 13.79C338.046 13.93 338.27 14.126 338.438 14.378C338.615 14.63 338.704 14.966 338.704 15.386C338.704 15.834 338.573 16.2213 338.312 16.548C338.05 16.8747 337.682 17.1313 337.206 17.318C336.73 17.4953 336.16 17.584 335.498 17.584ZM348.721 17.612C347.974 17.612 347.284 17.4907 346.649 17.248C346.024 16.996 345.478 16.646 345.011 16.198C344.554 15.7407 344.194 15.2087 343.933 14.602C343.672 13.9953 343.541 13.328 343.541 12.6C343.541 11.872 343.672 11.2047 343.933 10.598C344.194 9.99133 344.558 9.464 345.025 9.016C345.492 8.55867 346.038 8.20867 346.663 7.966C347.298 7.714 347.988 7.588 348.735 7.588C349.491 7.588 350.186 7.71867 350.821 7.98C351.465 8.232 352.011 8.61 352.459 9.114L351.549 9.996C351.176 9.604 350.756 9.31467 350.289 9.128C349.822 8.932 349.323 8.834 348.791 8.834C348.24 8.834 347.727 8.92733 347.251 9.114C346.784 9.30067 346.378 9.562 346.033 9.898C345.688 10.234 345.417 10.6353 345.221 11.102C345.034 11.5593 344.941 12.0587 344.941 12.6C344.941 13.1413 345.034 13.6453 345.221 14.112C345.417 14.5693 345.688 14.966 346.033 15.302C346.378 15.638 346.784 15.8993 347.251 16.086C347.727 16.2727 348.24 16.366 348.791 16.366C349.323 16.366 349.822 16.2727 350.289 16.086C350.756 15.89 351.176 15.5913 351.549 15.19L352.459 16.072C352.011 16.576 351.465 16.9587 350.821 17.22C350.186 17.4813 349.486 17.612 348.721 17.612ZM354.26 17.5V7.112H355.604V17.5H354.26ZM362.776 17.5V15.932L362.706 15.638V12.964C362.706 12.3947 362.538 11.956 362.202 11.648C361.876 11.3307 361.381 11.172 360.718 11.172C360.28 11.172 359.85 11.2467 359.43 11.396C359.01 11.536 358.656 11.7273 358.366 11.97L357.806 10.962C358.189 10.654 358.646 10.4207 359.178 10.262C359.72 10.094 360.284 10.01 360.872 10.01C361.89 10.01 362.674 10.2573 363.224 10.752C363.775 11.2467 364.05 12.0027 364.05 13.02V17.5H362.776ZM360.34 17.584C359.79 17.584 359.304 17.4907 358.884 17.304C358.474 17.1173 358.156 16.8607 357.932 16.534C357.708 16.198 357.596 15.82 357.596 15.4C357.596 14.9987 357.69 14.6347 357.876 14.308C358.072 13.9813 358.385 13.72 358.814 13.524C359.253 13.328 359.841 13.23 360.578 13.23H362.93V14.196H360.634C359.962 14.196 359.51 14.308 359.276 14.532C359.043 14.756 358.926 15.0267 358.926 15.344C358.926 15.708 359.071 16.002 359.36 16.226C359.65 16.4407 360.051 16.548 360.564 16.548C361.068 16.548 361.507 16.436 361.88 16.212C362.263 15.988 362.538 15.6613 362.706 15.232L362.972 16.156C362.795 16.5947 362.482 16.9447 362.034 17.206C361.586 17.458 361.022 17.584 360.34 17.584ZM368.666 17.584C368.05 17.584 367.462 17.5 366.902 17.332C366.351 17.164 365.917 16.9587 365.6 16.716L366.16 15.652C366.477 15.8667 366.869 16.0487 367.336 16.198C367.802 16.3473 368.278 16.422 368.764 16.422C369.389 16.422 369.837 16.3333 370.108 16.156C370.388 15.9787 370.528 15.7313 370.528 15.414C370.528 15.1807 370.444 14.9987 370.276 14.868C370.108 14.7373 369.884 14.6393 369.604 14.574C369.333 14.5087 369.03 14.4527 368.694 14.406C368.358 14.35 368.022 14.2847 367.686 14.21C367.35 14.126 367.042 14.014 366.762 13.874C366.482 13.7247 366.258 13.524 366.09 13.272C365.922 13.0107 365.838 12.6653 365.838 12.236C365.838 11.788 365.964 11.396 366.216 11.06C366.468 10.724 366.822 10.4673 367.28 10.29C367.746 10.1033 368.297 10.01 368.932 10.01C369.417 10.01 369.907 10.0707 370.402 10.192C370.906 10.304 371.316 10.4673 371.634 10.682L371.06 11.746C370.724 11.522 370.374 11.368 370.01 11.284C369.646 11.2 369.282 11.158 368.918 11.158C368.33 11.158 367.891 11.256 367.602 11.452C367.312 11.6387 367.168 11.8813 367.168 12.18C367.168 12.432 367.252 12.628 367.42 12.768C367.597 12.8987 367.821 13.0013 368.092 13.076C368.372 13.1507 368.68 13.216 369.016 13.272C369.352 13.3187 369.688 13.384 370.024 13.468C370.36 13.5427 370.663 13.65 370.934 13.79C371.214 13.93 371.438 14.126 371.606 14.378C371.783 14.63 371.872 14.966 371.872 15.386C371.872 15.834 371.741 16.2213 371.48 16.548C371.218 16.8747 370.85 17.1313 370.374 17.318C369.898 17.4953 369.328 17.584 368.666 17.584ZM375.679 17.584C375.063 17.584 374.475 17.5 373.915 17.332C373.365 17.164 372.931 16.9587 372.613 16.716L373.173 15.652C373.491 15.8667 373.883 16.0487 374.349 16.198C374.816 16.3473 375.292 16.422 375.777 16.422C376.403 16.422 376.851 16.3333 377.121 16.156C377.401 15.9787 377.541 15.7313 377.541 15.414C377.541 15.1807 377.457 14.9987 377.289 14.868C377.121 14.7373 376.897 14.6393 376.617 14.574C376.347 14.5087 376.043 14.4527 375.707 14.406C375.371 14.35 375.035 14.2847 374.699 14.21C374.363 14.126 374.055 14.014 373.775 13.874C373.495 13.7247 373.271 13.524 373.103 13.272C372.935 13.0107 372.851 12.6653 372.851 12.236C372.851 11.788 372.977 11.396 373.229 11.06C373.481 10.724 373.836 10.4673 374.293 10.29C374.76 10.1033 375.311 10.01 375.945 10.01C376.431 10.01 376.921 10.0707 377.415 10.192C377.919 10.304 378.33 10.4673 378.647 10.682L378.073 11.746C377.737 11.522 377.387 11.368 377.023 11.284C376.659 11.2 376.295 11.158 375.931 11.158C375.343 11.158 374.905 11.256 374.615 11.452C374.326 11.6387 374.181 11.8813 374.181 12.18C374.181 12.432 374.265 12.628 374.433 12.768C374.611 12.8987 374.835 13.0013 375.105 13.076C375.385 13.1507 375.693 13.216 376.029 13.272C376.365 13.3187 376.701 13.384 377.037 13.468C377.373 13.5427 377.677 13.65 377.947 13.79C378.227 13.93 378.451 14.126 378.619 14.378C378.797 14.63 378.885 14.966 378.885 15.386C378.885 15.834 378.755 16.2213 378.493 16.548C378.232 16.8747 377.863 17.1313 377.387 17.318C376.911 17.4953 376.342 17.584 375.679 17.584Z" fill="#112211"/>
</svg>
