<svg width="276" height="48" viewBox="0 0 276 48" fill="none" xmlns="http://www.w3.org/2000/svg">
<rect x="0.5" y="0.5" width="47" height="47" rx="3.5" stroke="#8DD3BB"/>
<path d="M27.7863 17.125C25.2504 17.125 24.0004 19.625 24.0004 19.625C24.0004 19.625 22.7504 17.125 20.2145 17.125C18.1535 17.125 16.5215 18.8492 16.5004 20.9066C16.4574 25.1773 19.8883 28.2145 23.6488 30.7668C23.7525 30.8373 23.875 30.8751 24.0004 30.8751C24.1258 30.8751 24.2483 30.8373 24.352 30.7668C28.1121 28.2145 31.543 25.1773 31.5004 20.9066C31.4793 18.8492 29.8473 17.125 27.7863 17.125V17.125Z" stroke="#112211" stroke-width="1.5" stroke-linecap="round" stroke-linejoin="round"/>
<rect x="63.5" y="0.5" width="47" height="47" rx="3.5" stroke="#8DD3BB"/>
<path d="M91.0596 16.0892C91.5462 15.8908 92.0817 15.8538 92.5879 15.9798L92.8037 16.0433C93.3 16.2161 93.7259 16.5428 94.0225 16.972L94.1416 17.1615C94.4 17.6192 94.5045 18.1461 94.4434 18.6644L94.4072 18.8851C94.2831 19.4727 93.9493 19.9958 93.4678 20.3548C93.0465 20.6689 92.5372 20.839 92.0156 20.8441L91.791 20.8363C91.1923 20.7874 90.6319 20.5215 90.2148 20.0892L90.2021 20.0765L90.1865 20.0853L84.4053 23.3382L84.3896 23.347L84.3945 23.3646C84.5054 23.781 84.5054 24.2196 84.3945 24.6361L84.3896 24.6536L84.4053 24.6624L90.1865 27.9154L90.2021 27.9241L90.2148 27.9105C90.3876 27.7298 90.5867 27.5769 90.8047 27.4564L91.0293 27.347C91.2592 27.2488 91.5022 27.1856 91.75 27.1605L92 27.1488C92.4525 27.1488 92.895 27.2725 93.2803 27.5052L93.4414 27.6116C93.8094 27.8751 94.0976 28.2333 94.2754 28.6468L94.3447 28.8275C94.4904 29.2559 94.5152 29.7149 94.4189 30.1546L94.3701 30.3421C94.2391 30.7752 93.9924 31.1628 93.6582 31.4642L93.5098 31.5882C93.0998 31.9035 92.6009 32.0823 92.084 32.0999C91.6317 32.1153 91.185 32.0069 90.792 31.7874L90.627 31.6868C90.1966 31.4003 89.8667 30.9858 89.6836 30.5023C89.5005 30.0186 89.4737 29.4894 89.6064 28.9896L89.6113 28.972L89.5947 28.9632L83.8135 25.7103L83.7979 25.7015L83.7852 25.7142C83.4858 26.0262 83.111 26.2537 82.6982 26.3753L82.5195 26.4212C82.0364 26.5252 81.5327 26.4825 81.0742 26.2982C80.673 26.1369 80.3225 25.873 80.0557 25.5355L79.9463 25.387C79.6696 24.9776 79.5215 24.4944 79.5215 24.0003C79.5215 23.5061 79.6696 23.0231 79.9463 22.6136C80.223 22.2041 80.6157 21.8868 81.0742 21.7025C81.4754 21.5412 81.9107 21.4883 82.3369 21.5472L82.5195 21.5784C83.0025 21.6824 83.4432 21.929 83.7852 22.2855L83.7979 22.2991L83.8135 22.2904L89.5947 19.0374L89.6113 19.0286L89.6064 19.0111C89.4712 18.5032 89.5014 17.967 89.6904 17.4808L89.7812 17.2757C90.0154 16.805 90.393 16.4229 90.8564 16.1829L91.0596 16.0892Z" fill="black" stroke="#112211" stroke-width="0.046875"/>
<rect x="126" width="150" height="48" rx="4" fill="#8DD3BB"/>
<path d="M165.816 29.5V19.7H170.408C171.584 19.7 172.48 19.9333 173.096 20.4C173.712 20.8573 174.02 21.4733 174.02 22.248C174.02 22.7707 173.899 23.2187 173.656 23.592C173.413 23.956 173.087 24.2407 172.676 24.446C172.275 24.642 171.836 24.74 171.36 24.74L171.612 24.236C172.163 24.236 172.657 24.3387 173.096 24.544C173.535 24.74 173.88 25.0293 174.132 25.412C174.393 25.7947 174.524 26.2707 174.524 26.84C174.524 27.68 174.202 28.3333 173.558 28.8C172.914 29.2667 171.957 29.5 170.688 29.5H165.816ZM167.636 28.072H170.576C171.257 28.072 171.78 27.96 172.144 27.736C172.508 27.512 172.69 27.1527 172.69 26.658C172.69 26.1727 172.508 25.818 172.144 25.594C171.78 25.3607 171.257 25.244 170.576 25.244H167.496V23.83H170.212C170.847 23.83 171.332 23.718 171.668 23.494C172.013 23.27 172.186 22.934 172.186 22.486C172.186 22.0287 172.013 21.688 171.668 21.464C171.332 21.24 170.847 21.128 170.212 21.128H167.636V28.072ZM179.658 29.598C178.893 29.598 178.212 29.4347 177.614 29.108C177.017 28.772 176.546 28.3147 176.2 27.736C175.855 27.1573 175.682 26.4993 175.682 25.762C175.682 25.0153 175.855 24.3573 176.2 23.788C176.546 23.2093 177.017 22.7567 177.614 22.43C178.212 22.1033 178.893 21.94 179.658 21.94C180.433 21.94 181.119 22.1033 181.716 22.43C182.323 22.7567 182.794 23.2047 183.13 23.774C183.476 24.3433 183.648 25.006 183.648 25.762C183.648 26.4993 183.476 27.1573 183.13 27.736C182.794 28.3147 182.323 28.772 181.716 29.108C181.119 29.4347 180.433 29.598 179.658 29.598ZM179.658 28.1C180.088 28.1 180.47 28.0067 180.806 27.82C181.142 27.6333 181.404 27.3627 181.59 27.008C181.786 26.6533 181.884 26.238 181.884 25.762C181.884 25.2767 181.786 24.8613 181.59 24.516C181.404 24.1613 181.142 23.8907 180.806 23.704C180.47 23.5173 180.092 23.424 179.672 23.424C179.243 23.424 178.86 23.5173 178.524 23.704C178.198 23.8907 177.936 24.1613 177.74 24.516C177.544 24.8613 177.446 25.2767 177.446 25.762C177.446 26.238 177.544 26.6533 177.74 27.008C177.936 27.3627 178.198 27.6333 178.524 27.82C178.86 28.0067 179.238 28.1 179.658 28.1ZM188.682 29.598C187.916 29.598 187.235 29.4347 186.638 29.108C186.04 28.772 185.569 28.3147 185.224 27.736C184.878 27.1573 184.706 26.4993 184.706 25.762C184.706 25.0153 184.878 24.3573 185.224 23.788C185.569 23.2093 186.04 22.7567 186.638 22.43C187.235 22.1033 187.916 21.94 188.682 21.94C189.456 21.94 190.142 22.1033 190.74 22.43C191.346 22.7567 191.818 23.2047 192.154 23.774C192.499 24.3433 192.672 25.006 192.672 25.762C192.672 26.4993 192.499 27.1573 192.154 27.736C191.818 28.3147 191.346 28.772 190.74 29.108C190.142 29.4347 189.456 29.598 188.682 29.598ZM188.682 28.1C189.111 28.1 189.494 28.0067 189.83 27.82C190.166 27.6333 190.427 27.3627 190.614 27.008C190.81 26.6533 190.908 26.238 190.908 25.762C190.908 25.2767 190.81 24.8613 190.614 24.516C190.427 24.1613 190.166 23.8907 189.83 23.704C189.494 23.5173 189.116 23.424 188.696 23.424C188.266 23.424 187.884 23.5173 187.548 23.704C187.221 23.8907 186.96 24.1613 186.764 24.516C186.568 24.8613 186.47 25.2767 186.47 25.762C186.47 26.238 186.568 26.6533 186.764 27.008C186.96 27.3627 187.221 27.6333 187.548 27.82C187.884 28.0067 188.262 28.1 188.682 28.1ZM195.773 27.834L195.815 25.636L199.721 22.024H201.821L198.503 25.356L197.579 26.126L195.773 27.834ZM194.345 29.5V19.112H196.095V29.5H194.345ZM199.987 29.5L197.257 26.126L198.363 24.726L202.115 29.5H199.987ZM211.357 21.94C211.954 21.94 212.486 22.0567 212.953 22.29C213.429 22.5233 213.802 22.8827 214.073 23.368C214.343 23.844 214.479 24.46 214.479 25.216V29.5H212.729V25.44C212.729 24.7773 212.57 24.2827 212.253 23.956C211.945 23.6293 211.511 23.466 210.951 23.466C210.54 23.466 210.176 23.55 209.859 23.718C209.541 23.886 209.294 24.138 209.117 24.474C208.949 24.8007 208.865 25.216 208.865 25.72V29.5H207.115V22.024H208.781V24.04L208.487 23.424C208.748 22.948 209.126 22.584 209.621 22.332C210.125 22.0707 210.703 21.94 211.357 21.94ZM220.072 29.598C219.307 29.598 218.626 29.4347 218.028 29.108C217.431 28.772 216.96 28.3147 216.614 27.736C216.269 27.1573 216.096 26.4993 216.096 25.762C216.096 25.0153 216.269 24.3573 216.614 23.788C216.96 23.2093 217.431 22.7567 218.028 22.43C218.626 22.1033 219.307 21.94 220.072 21.94C220.847 21.94 221.533 22.1033 222.13 22.43C222.737 22.7567 223.208 23.2047 223.544 23.774C223.89 24.3433 224.062 25.006 224.062 25.762C224.062 26.4993 223.89 27.1573 223.544 27.736C223.208 28.3147 222.737 28.772 222.13 29.108C221.533 29.4347 220.847 29.598 220.072 29.598ZM220.072 28.1C220.502 28.1 220.884 28.0067 221.22 27.82C221.556 27.6333 221.818 27.3627 222.004 27.008C222.2 26.6533 222.298 26.238 222.298 25.762C222.298 25.2767 222.2 24.8613 222.004 24.516C221.818 24.1613 221.556 23.8907 221.22 23.704C220.884 23.5173 220.506 23.424 220.086 23.424C219.657 23.424 219.274 23.5173 218.938 23.704C218.612 23.8907 218.35 24.1613 218.154 24.516C217.958 24.8613 217.86 25.2767 217.86 25.762C217.86 26.238 217.958 26.6533 218.154 27.008C218.35 27.3627 218.612 27.6333 218.938 27.82C219.274 28.0067 219.652 28.1 220.072 28.1ZM227.183 29.5L224.439 22.024H226.091L228.443 28.618H227.659L230.123 22.024H231.593L233.987 28.618H233.217L235.639 22.024H237.193L234.435 29.5H232.755L230.571 23.662H231.089L228.863 29.5H227.183Z" fill="#112211"/>
</svg>
